<svg xmlns="http://www.w3.org/2000/svg" width="27.692" height="30" viewBox="0 0 27.692 30">
  <path id="Icon_ionic-md-flower" data-name="Icon ionic-md-flower" d="M29.1,18.375A5.339,5.339,0,0,0,26.784,8.192a5.431,5.431,0,0,0-3.072.945l.043-.4a5.409,5.409,0,0,0-10.817,0l.043.4a5.369,5.369,0,1,0-5.387,9.238A5.339,5.339,0,0,0,9.909,28.558a5.431,5.431,0,0,0,3.072-.945l-.043.4a5.409,5.409,0,0,0,10.817,0l-.043-.4A5.369,5.369,0,1,0,29.1,18.375ZM18.346,23.733a5.358,5.358,0,1,1,5.409-5.358A5.386,5.386,0,0,1,18.346,23.733Z" transform="translate(-4.5 -3.375)" fill="#512b81"/>
</svg>
